<svg xmlns="http://www.w3.org/2000/svg" viewBox="0 0 540 372" role="img" aria-label="ELISA microplate with serial dilution">
<defs><linearGradient id="plate" x1="0" y1="0" x2="0" y2="1"><stop offset="0" stop-color="#ffffff"/><stop offset="1" stop-color="#eef5f1"/></linearGradient><radialGradient id="sig" cx="0.35" cy="0.3" r="0.8"><stop offset="0" stop-color="#f7c768"/><stop offset="0.5" stop-color="#f0a830"/><stop offset="1" stop-color="#d98e1e"/></radialGradient><radialGradient id="well" cx="0.35" cy="0.3" r="0.9"><stop offset="0" stop-color="#ffffff"/><stop offset="1" stop-color="#e4efe9"/></radialGradient></defs>
<rect x="14" y="14" width="512" height="344" rx="22" fill="url(#plate)" stroke="#d8e8e0" stroke-width="1.5"/>
<rect x="30" y="28" width="40" height="12" rx="6" fill="#ffffff" opacity="0.55"/>
<text x="60.0" y="52" text-anchor="middle" font-family="ui-sans-serif,system-ui,Segoe UI,Arial,sans-serif" font-size="11" fill="#6f8a7e">1</text>
<text x="97.5" y="52" text-anchor="middle" font-family="ui-sans-serif,system-ui,Segoe UI,Arial,sans-serif" font-size="11" fill="#6f8a7e">2</text>
<text x="135.0" y="52" text-anchor="middle" font-family="ui-sans-serif,system-ui,Segoe UI,Arial,sans-serif" font-size="11" fill="#6f8a7e">3</text>
<text x="172.5" y="52" text-anchor="middle" font-family="ui-sans-serif,system-ui,Segoe UI,Arial,sans-serif" font-size="11" fill="#6f8a7e">4</text>
<text x="210.0" y="52" text-anchor="middle" font-family="ui-sans-serif,system-ui,Segoe UI,Arial,sans-serif" font-size="11" fill="#6f8a7e">5</text>
<text x="247.5" y="52" text-anchor="middle" font-family="ui-sans-serif,system-ui,Segoe UI,Arial,sans-serif" font-size="11" fill="#6f8a7e">6</text>
<text x="285.0" y="52" text-anchor="middle" font-family="ui-sans-serif,system-ui,Segoe UI,Arial,sans-serif" font-size="11" fill="#6f8a7e">7</text>
<text x="322.5" y="52" text-anchor="middle" font-family="ui-sans-serif,system-ui,Segoe UI,Arial,sans-serif" font-size="11" fill="#6f8a7e">8</text>
<text x="360.0" y="52" text-anchor="middle" font-family="ui-sans-serif,system-ui,Segoe UI,Arial,sans-serif" font-size="11" fill="#6f8a7e">9</text>
<text x="397.5" y="52" text-anchor="middle" font-family="ui-sans-serif,system-ui,Segoe UI,Arial,sans-serif" font-size="11" fill="#6f8a7e">10</text>
<text x="435.0" y="52" text-anchor="middle" font-family="ui-sans-serif,system-ui,Segoe UI,Arial,sans-serif" font-size="11" fill="#6f8a7e">11</text>
<text x="472.5" y="52" text-anchor="middle" font-family="ui-sans-serif,system-ui,Segoe UI,Arial,sans-serif" font-size="11" fill="#6f8a7e">12</text>
<text x="40" y="68.0" text-anchor="middle" font-family="ui-sans-serif,system-ui,Segoe UI,Arial,sans-serif" font-size="11" fill="#6f8a7e">A</text>
<text x="40" y="105.5" text-anchor="middle" font-family="ui-sans-serif,system-ui,Segoe UI,Arial,sans-serif" font-size="11" fill="#6f8a7e">B</text>
<text x="40" y="143.0" text-anchor="middle" font-family="ui-sans-serif,system-ui,Segoe UI,Arial,sans-serif" font-size="11" fill="#6f8a7e">C</text>
<text x="40" y="180.5" text-anchor="middle" font-family="ui-sans-serif,system-ui,Segoe UI,Arial,sans-serif" font-size="11" fill="#6f8a7e">D</text>
<text x="40" y="218.0" text-anchor="middle" font-family="ui-sans-serif,system-ui,Segoe UI,Arial,sans-serif" font-size="11" fill="#6f8a7e">E</text>
<text x="40" y="255.5" text-anchor="middle" font-family="ui-sans-serif,system-ui,Segoe UI,Arial,sans-serif" font-size="11" fill="#6f8a7e">F</text>
<text x="40" y="293.0" text-anchor="middle" font-family="ui-sans-serif,system-ui,Segoe UI,Arial,sans-serif" font-size="11" fill="#6f8a7e">G</text>
<text x="40" y="330.5" text-anchor="middle" font-family="ui-sans-serif,system-ui,Segoe UI,Arial,sans-serif" font-size="11" fill="#6f8a7e">H</text>
<circle cx="60.0" cy="64.0" r="14" fill="url(#well)" stroke="#cfe2d9" stroke-width="1.5"/>
<circle class="sig" style="--c:0.94;--d:0.00s" cx="60.0" cy="64.0" r="13" fill="url(#sig)"/>
<circle cx="97.5" cy="64.0" r="14" fill="url(#well)" stroke="#cfe2d9" stroke-width="1.5"/>
<circle class="sig" style="--c:0.73;--d:0.07s" cx="97.5" cy="64.0" r="13" fill="url(#sig)"/>
<circle cx="135.0" cy="64.0" r="14" fill="url(#well)" stroke="#cfe2d9" stroke-width="1.5"/>
<circle class="sig" style="--c:0.63;--d:0.14s" cx="135.0" cy="64.0" r="13" fill="url(#sig)"/>
<circle cx="172.5" cy="64.0" r="14" fill="url(#well)" stroke="#cfe2d9" stroke-width="1.5"/>
<circle class="sig" style="--c:0.45;--d:0.21s" cx="172.5" cy="64.0" r="13" fill="url(#sig)"/>
<circle cx="210.0" cy="64.0" r="14" fill="url(#well)" stroke="#cfe2d9" stroke-width="1.5"/>
<circle class="sig" style="--c:0.40;--d:0.28s" cx="210.0" cy="64.0" r="13" fill="url(#sig)"/>
<circle cx="247.5" cy="64.0" r="14" fill="url(#well)" stroke="#cfe2d9" stroke-width="1.5"/>
<circle class="sig" style="--c:0.30;--d:0.35s" cx="247.5" cy="64.0" r="13" fill="url(#sig)"/>
<circle cx="285.0" cy="64.0" r="14" fill="url(#well)" stroke="#cfe2d9" stroke-width="1.5"/>
<circle class="sig" style="--c:0.21;--d:0.42s" cx="285.0" cy="64.0" r="13" fill="url(#sig)"/>
<circle cx="322.5" cy="64.0" r="14" fill="url(#well)" stroke="#cfe2d9" stroke-width="1.5"/>
<circle class="sig" style="--c:0.20;--d:0.49s" cx="322.5" cy="64.0" r="13" fill="url(#sig)"/>
<circle cx="360.0" cy="64.0" r="14" fill="url(#well)" stroke="#cfe2d9" stroke-width="1.5"/>
<circle class="sig" style="--c:0.12;--d:0.56s" cx="360.0" cy="64.0" r="13" fill="url(#sig)"/>
<circle cx="397.5" cy="64.0" r="14" fill="url(#well)" stroke="#cfe2d9" stroke-width="1.5"/>
<circle class="sig" style="--c:0.12;--d:0.63s" cx="397.5" cy="64.0" r="13" fill="url(#sig)"/>
<circle cx="435.0" cy="64.0" r="14" fill="url(#well)" stroke="#cfe2d9" stroke-width="1.5"/>
<circle class="sig" style="--c:0.06;--d:0.70s" cx="435.0" cy="64.0" r="13" fill="url(#sig)"/>
<circle cx="472.5" cy="64.0" r="14" fill="url(#well)" stroke="#cfe2d9" stroke-width="1.5"/>
<circle class="sig" style="--c:0.04;--d:0.77s" cx="472.5" cy="64.0" r="13" fill="url(#sig)"/>
<circle cx="60.0" cy="101.5" r="14" fill="url(#well)" stroke="#cfe2d9" stroke-width="1.5"/>
<circle class="sig" style="--c:0.87;--d:0.04s" cx="60.0" cy="101.5" r="13" fill="url(#sig)"/>
<circle cx="97.5" cy="101.5" r="14" fill="url(#well)" stroke="#cfe2d9" stroke-width="1.5"/>
<circle class="sig" style="--c:0.74;--d:0.11s" cx="97.5" cy="101.5" r="13" fill="url(#sig)"/>
<circle cx="135.0" cy="101.5" r="14" fill="url(#well)" stroke="#cfe2d9" stroke-width="1.5"/>
<circle class="sig" style="--c:0.53;--d:0.18s" cx="135.0" cy="101.5" r="13" fill="url(#sig)"/>
<circle cx="172.5" cy="101.5" r="14" fill="url(#well)" stroke="#cfe2d9" stroke-width="1.5"/>
<circle class="sig" style="--c:0.42;--d:0.25s" cx="172.5" cy="101.5" r="13" fill="url(#sig)"/>
<circle cx="210.0" cy="101.5" r="14" fill="url(#well)" stroke="#cfe2d9" stroke-width="1.5"/>
<circle class="sig" style="--c:0.37;--d:0.32s" cx="210.0" cy="101.5" r="13" fill="url(#sig)"/>
<circle cx="247.5" cy="101.5" r="14" fill="url(#well)" stroke="#cfe2d9" stroke-width="1.5"/>
<circle class="sig" style="--c:0.33;--d:0.39s" cx="247.5" cy="101.5" r="13" fill="url(#sig)"/>
<circle cx="285.0" cy="101.5" r="14" fill="url(#well)" stroke="#cfe2d9" stroke-width="1.5"/>
<circle class="sig" style="--c:0.24;--d:0.46s" cx="285.0" cy="101.5" r="13" fill="url(#sig)"/>
<circle cx="322.5" cy="101.5" r="14" fill="url(#well)" stroke="#cfe2d9" stroke-width="1.5"/>
<circle class="sig" style="--c:0.18;--d:0.53s" cx="322.5" cy="101.5" r="13" fill="url(#sig)"/>
<circle cx="360.0" cy="101.5" r="14" fill="url(#well)" stroke="#cfe2d9" stroke-width="1.5"/>
<circle class="sig" style="--c:0.20;--d:0.60s" cx="360.0" cy="101.5" r="13" fill="url(#sig)"/>
<circle cx="397.5" cy="101.5" r="14" fill="url(#well)" stroke="#cfe2d9" stroke-width="1.5"/>
<circle class="sig" style="--c:0.07;--d:0.67s" cx="397.5" cy="101.5" r="13" fill="url(#sig)"/>
<circle cx="435.0" cy="101.5" r="14" fill="url(#well)" stroke="#cfe2d9" stroke-width="1.5"/>
<circle class="sig" style="--c:0.13;--d:0.74s" cx="435.0" cy="101.5" r="13" fill="url(#sig)"/>
<circle cx="472.5" cy="101.5" r="14" fill="url(#well)" stroke="#cfe2d9" stroke-width="1.5"/>
<circle class="sig" style="--c:0.06;--d:0.81s" cx="472.5" cy="101.5" r="13" fill="url(#sig)"/>
<circle cx="60.0" cy="139.0" r="14" fill="url(#well)" stroke="#cfe2d9" stroke-width="1.5"/>
<circle class="sig" style="--c:0.70;--d:0.08s" cx="60.0" cy="139.0" r="13" fill="url(#sig)"/>
<circle cx="97.5" cy="139.0" r="14" fill="url(#well)" stroke="#cfe2d9" stroke-width="1.5"/>
<circle class="sig" style="--c:0.55;--d:0.15s" cx="97.5" cy="139.0" r="13" fill="url(#sig)"/>
<circle cx="135.0" cy="139.0" r="14" fill="url(#well)" stroke="#cfe2d9" stroke-width="1.5"/>
<circle class="sig" style="--c:0.46;--d:0.22s" cx="135.0" cy="139.0" r="13" fill="url(#sig)"/>
<circle cx="172.5" cy="139.0" r="14" fill="url(#well)" stroke="#cfe2d9" stroke-width="1.5"/>
<circle class="sig" style="--c:0.41;--d:0.29s" cx="172.5" cy="139.0" r="13" fill="url(#sig)"/>
<circle cx="210.0" cy="139.0" r="14" fill="url(#well)" stroke="#cfe2d9" stroke-width="1.5"/>
<circle class="sig" style="--c:0.27;--d:0.36s" cx="210.0" cy="139.0" r="13" fill="url(#sig)"/>
<circle cx="247.5" cy="139.0" r="14" fill="url(#well)" stroke="#cfe2d9" stroke-width="1.5"/>
<circle class="sig" style="--c:0.25;--d:0.43s" cx="247.5" cy="139.0" r="13" fill="url(#sig)"/>
<circle cx="285.0" cy="139.0" r="14" fill="url(#well)" stroke="#cfe2d9" stroke-width="1.5"/>
<circle class="sig" style="--c:0.21;--d:0.50s" cx="285.0" cy="139.0" r="13" fill="url(#sig)"/>
<circle cx="322.5" cy="139.0" r="14" fill="url(#well)" stroke="#cfe2d9" stroke-width="1.5"/>
<circle class="sig" style="--c:0.14;--d:0.57s" cx="322.5" cy="139.0" r="13" fill="url(#sig)"/>
<circle cx="360.0" cy="139.0" r="14" fill="url(#well)" stroke="#cfe2d9" stroke-width="1.5"/>
<circle class="sig" style="--c:0.13;--d:0.64s" cx="360.0" cy="139.0" r="13" fill="url(#sig)"/>
<circle cx="397.5" cy="139.0" r="14" fill="url(#well)" stroke="#cfe2d9" stroke-width="1.5"/>
<circle class="sig" style="--c:0.06;--d:0.71s" cx="397.5" cy="139.0" r="13" fill="url(#sig)"/>
<circle cx="435.0" cy="139.0" r="14" fill="url(#well)" stroke="#cfe2d9" stroke-width="1.5"/>
<circle cx="472.5" cy="139.0" r="14" fill="url(#well)" stroke="#cfe2d9" stroke-width="1.5"/>
<circle cx="60.0" cy="176.5" r="14" fill="url(#well)" stroke="#cfe2d9" stroke-width="1.5"/>
<circle class="sig" style="--c:0.62;--d:0.12s" cx="60.0" cy="176.5" r="13" fill="url(#sig)"/>
<circle cx="97.5" cy="176.5" r="14" fill="url(#well)" stroke="#cfe2d9" stroke-width="1.5"/>
<circle class="sig" style="--c:0.47;--d:0.19s" cx="97.5" cy="176.5" r="13" fill="url(#sig)"/>
<circle cx="135.0" cy="176.5" r="14" fill="url(#well)" stroke="#cfe2d9" stroke-width="1.5"/>
<circle class="sig" style="--c:0.37;--d:0.26s" cx="135.0" cy="176.5" r="13" fill="url(#sig)"/>
<circle cx="172.5" cy="176.5" r="14" fill="url(#well)" stroke="#cfe2d9" stroke-width="1.5"/>
<circle class="sig" style="--c:0.32;--d:0.33s" cx="172.5" cy="176.5" r="13" fill="url(#sig)"/>
<circle cx="210.0" cy="176.5" r="14" fill="url(#well)" stroke="#cfe2d9" stroke-width="1.5"/>
<circle class="sig" style="--c:0.24;--d:0.40s" cx="210.0" cy="176.5" r="13" fill="url(#sig)"/>
<circle cx="247.5" cy="176.5" r="14" fill="url(#well)" stroke="#cfe2d9" stroke-width="1.5"/>
<circle class="sig" style="--c:0.18;--d:0.47s" cx="247.5" cy="176.5" r="13" fill="url(#sig)"/>
<circle cx="285.0" cy="176.5" r="14" fill="url(#well)" stroke="#cfe2d9" stroke-width="1.5"/>
<circle class="sig" style="--c:0.19;--d:0.54s" cx="285.0" cy="176.5" r="13" fill="url(#sig)"/>
<circle cx="322.5" cy="176.5" r="14" fill="url(#well)" stroke="#cfe2d9" stroke-width="1.5"/>
<circle class="sig" style="--c:0.15;--d:0.61s" cx="322.5" cy="176.5" r="13" fill="url(#sig)"/>
<circle cx="360.0" cy="176.5" r="14" fill="url(#well)" stroke="#cfe2d9" stroke-width="1.5"/>
<circle class="sig" style="--c:0.08;--d:0.68s" cx="360.0" cy="176.5" r="13" fill="url(#sig)"/>
<circle cx="397.5" cy="176.5" r="14" fill="url(#well)" stroke="#cfe2d9" stroke-width="1.5"/>
<circle class="sig" style="--c:0.09;--d:0.75s" cx="397.5" cy="176.5" r="13" fill="url(#sig)"/>
<circle cx="435.0" cy="176.5" r="14" fill="url(#well)" stroke="#cfe2d9" stroke-width="1.5"/>
<circle class="sig" style="--c:0.07;--d:0.82s" cx="435.0" cy="176.5" r="13" fill="url(#sig)"/>
<circle cx="472.5" cy="176.5" r="14" fill="url(#well)" stroke="#cfe2d9" stroke-width="1.5"/>
<circle class="sig" style="--c:0.09;--d:0.89s" cx="472.5" cy="176.5" r="13" fill="url(#sig)"/>
<circle cx="60.0" cy="214.0" r="14" fill="url(#well)" stroke="#cfe2d9" stroke-width="1.5"/>
<circle class="sig" style="--c:0.48;--d:0.16s" cx="60.0" cy="214.0" r="13" fill="url(#sig)"/>
<circle cx="97.5" cy="214.0" r="14" fill="url(#well)" stroke="#cfe2d9" stroke-width="1.5"/>
<circle class="sig" style="--c:0.35;--d:0.23s" cx="97.5" cy="214.0" r="13" fill="url(#sig)"/>
<circle cx="135.0" cy="214.0" r="14" fill="url(#well)" stroke="#cfe2d9" stroke-width="1.5"/>
<circle class="sig" style="--c:0.34;--d:0.30s" cx="135.0" cy="214.0" r="13" fill="url(#sig)"/>
<circle cx="172.5" cy="214.0" r="14" fill="url(#well)" stroke="#cfe2d9" stroke-width="1.5"/>
<circle class="sig" style="--c:0.20;--d:0.37s" cx="172.5" cy="214.0" r="13" fill="url(#sig)"/>
<circle cx="210.0" cy="214.0" r="14" fill="url(#well)" stroke="#cfe2d9" stroke-width="1.5"/>
<circle class="sig" style="--c:0.18;--d:0.44s" cx="210.0" cy="214.0" r="13" fill="url(#sig)"/>
<circle cx="247.5" cy="214.0" r="14" fill="url(#well)" stroke="#cfe2d9" stroke-width="1.5"/>
<circle class="sig" style="--c:0.18;--d:0.51s" cx="247.5" cy="214.0" r="13" fill="url(#sig)"/>
<circle cx="285.0" cy="214.0" r="14" fill="url(#well)" stroke="#cfe2d9" stroke-width="1.5"/>
<circle class="sig" style="--c:0.09;--d:0.58s" cx="285.0" cy="214.0" r="13" fill="url(#sig)"/>
<circle cx="322.5" cy="214.0" r="14" fill="url(#well)" stroke="#cfe2d9" stroke-width="1.5"/>
<circle class="sig" style="--c:0.10;--d:0.65s" cx="322.5" cy="214.0" r="13" fill="url(#sig)"/>
<circle cx="360.0" cy="214.0" r="14" fill="url(#well)" stroke="#cfe2d9" stroke-width="1.5"/>
<circle cx="397.5" cy="214.0" r="14" fill="url(#well)" stroke="#cfe2d9" stroke-width="1.5"/>
<circle class="sig" style="--c:0.08;--d:0.79s" cx="397.5" cy="214.0" r="13" fill="url(#sig)"/>
<circle cx="435.0" cy="214.0" r="14" fill="url(#well)" stroke="#cfe2d9" stroke-width="1.5"/>
<circle class="sig" style="--c:0.08;--d:0.86s" cx="435.0" cy="214.0" r="13" fill="url(#sig)"/>
<circle cx="472.5" cy="214.0" r="14" fill="url(#well)" stroke="#cfe2d9" stroke-width="1.5"/>
<circle class="sig" style="--c:0.05;--d:0.93s" cx="472.5" cy="214.0" r="13" fill="url(#sig)"/>
<circle cx="60.0" cy="251.5" r="14" fill="url(#well)" stroke="#cfe2d9" stroke-width="1.5"/>
<circle class="sig" style="--c:0.36;--d:0.20s" cx="60.0" cy="251.5" r="13" fill="url(#sig)"/>
<circle cx="97.5" cy="251.5" r="14" fill="url(#well)" stroke="#cfe2d9" stroke-width="1.5"/>
<circle class="sig" style="--c:0.24;--d:0.27s" cx="97.5" cy="251.5" r="13" fill="url(#sig)"/>
<circle cx="135.0" cy="251.5" r="14" fill="url(#well)" stroke="#cfe2d9" stroke-width="1.5"/>
<circle class="sig" style="--c:0.22;--d:0.34s" cx="135.0" cy="251.5" r="13" fill="url(#sig)"/>
<circle cx="172.5" cy="251.5" r="14" fill="url(#well)" stroke="#cfe2d9" stroke-width="1.5"/>
<circle class="sig" style="--c:0.17;--d:0.41s" cx="172.5" cy="251.5" r="13" fill="url(#sig)"/>
<circle cx="210.0" cy="251.5" r="14" fill="url(#well)" stroke="#cfe2d9" stroke-width="1.5"/>
<circle class="sig" style="--c:0.14;--d:0.48s" cx="210.0" cy="251.5" r="13" fill="url(#sig)"/>
<circle cx="247.5" cy="251.5" r="14" fill="url(#well)" stroke="#cfe2d9" stroke-width="1.5"/>
<circle class="sig" style="--c:0.10;--d:0.55s" cx="247.5" cy="251.5" r="13" fill="url(#sig)"/>
<circle cx="285.0" cy="251.5" r="14" fill="url(#well)" stroke="#cfe2d9" stroke-width="1.5"/>
<circle class="sig" style="--c:0.12;--d:0.62s" cx="285.0" cy="251.5" r="13" fill="url(#sig)"/>
<circle cx="322.5" cy="251.5" r="14" fill="url(#well)" stroke="#cfe2d9" stroke-width="1.5"/>
<circle class="sig" style="--c:0.11;--d:0.69s" cx="322.5" cy="251.5" r="13" fill="url(#sig)"/>
<circle cx="360.0" cy="251.5" r="14" fill="url(#well)" stroke="#cfe2d9" stroke-width="1.5"/>
<circle class="sig" style="--c:0.05;--d:0.76s" cx="360.0" cy="251.5" r="13" fill="url(#sig)"/>
<circle cx="397.5" cy="251.5" r="14" fill="url(#well)" stroke="#cfe2d9" stroke-width="1.5"/>
<circle class="sig" style="--c:0.06;--d:0.83s" cx="397.5" cy="251.5" r="13" fill="url(#sig)"/>
<circle cx="435.0" cy="251.5" r="14" fill="url(#well)" stroke="#cfe2d9" stroke-width="1.5"/>
<circle cx="472.5" cy="251.5" r="14" fill="url(#well)" stroke="#cfe2d9" stroke-width="1.5"/>
<circle class="sig" style="--c:0.05;--d:0.97s" cx="472.5" cy="251.5" r="13" fill="url(#sig)"/>
<circle cx="60.0" cy="289.0" r="14" fill="url(#well)" stroke="#cfe2d9" stroke-width="1.5"/>
<circle class="sig" style="--c:0.21;--d:0.24s" cx="60.0" cy="289.0" r="13" fill="url(#sig)"/>
<circle cx="97.5" cy="289.0" r="14" fill="url(#well)" stroke="#cfe2d9" stroke-width="1.5"/>
<circle class="sig" style="--c:0.21;--d:0.31s" cx="97.5" cy="289.0" r="13" fill="url(#sig)"/>
<circle cx="135.0" cy="289.0" r="14" fill="url(#well)" stroke="#cfe2d9" stroke-width="1.5"/>
<circle class="sig" style="--c:0.16;--d:0.38s" cx="135.0" cy="289.0" r="13" fill="url(#sig)"/>
<circle cx="172.5" cy="289.0" r="14" fill="url(#well)" stroke="#cfe2d9" stroke-width="1.5"/>
<circle class="sig" style="--c:0.08;--d:0.45s" cx="172.5" cy="289.0" r="13" fill="url(#sig)"/>
<circle cx="210.0" cy="289.0" r="14" fill="url(#well)" stroke="#cfe2d9" stroke-width="1.5"/>
<circle class="sig" style="--c:0.07;--d:0.52s" cx="210.0" cy="289.0" r="13" fill="url(#sig)"/>
<circle cx="247.5" cy="289.0" r="14" fill="url(#well)" stroke="#cfe2d9" stroke-width="1.5"/>
<circle class="sig" style="--c:0.08;--d:0.59s" cx="247.5" cy="289.0" r="13" fill="url(#sig)"/>
<circle cx="285.0" cy="289.0" r="14" fill="url(#well)" stroke="#cfe2d9" stroke-width="1.5"/>
<circle cx="322.5" cy="289.0" r="14" fill="url(#well)" stroke="#cfe2d9" stroke-width="1.5"/>
<circle cx="360.0" cy="289.0" r="14" fill="url(#well)" stroke="#cfe2d9" stroke-width="1.5"/>
<circle cx="397.5" cy="289.0" r="14" fill="url(#well)" stroke="#cfe2d9" stroke-width="1.5"/>
<circle cx="435.0" cy="289.0" r="14" fill="url(#well)" stroke="#cfe2d9" stroke-width="1.5"/>
<circle cx="472.5" cy="289.0" r="14" fill="url(#well)" stroke="#cfe2d9" stroke-width="1.5"/>
<circle class="sig" style="--c:0.04;--d:1.01s" cx="472.5" cy="289.0" r="13" fill="url(#sig)"/>
<circle cx="60.0" cy="326.5" r="14" fill="url(#well)" stroke="#cfe2d9" stroke-width="1.5"/>
<circle cx="97.5" cy="326.5" r="14" fill="url(#well)" stroke="#cfe2d9" stroke-width="1.5"/>
<circle cx="135.0" cy="326.5" r="14" fill="url(#well)" stroke="#cfe2d9" stroke-width="1.5"/>
<circle cx="172.5" cy="326.5" r="14" fill="url(#well)" stroke="#cfe2d9" stroke-width="1.5"/>
<circle cx="210.0" cy="326.5" r="14" fill="url(#well)" stroke="#cfe2d9" stroke-width="1.5"/>
<circle cx="247.5" cy="326.5" r="14" fill="url(#well)" stroke="#cfe2d9" stroke-width="1.5"/>
<circle cx="285.0" cy="326.5" r="14" fill="url(#well)" stroke="#cfe2d9" stroke-width="1.5"/>
<circle cx="322.5" cy="326.5" r="14" fill="url(#well)" stroke="#cfe2d9" stroke-width="1.5"/>
<circle cx="360.0" cy="326.5" r="14" fill="url(#well)" stroke="#cfe2d9" stroke-width="1.5"/>
<circle cx="397.5" cy="326.5" r="14" fill="url(#well)" stroke="#cfe2d9" stroke-width="1.5"/>
<circle cx="435.0" cy="326.5" r="14" fill="url(#well)" stroke="#cfe2d9" stroke-width="1.5"/>
<circle cx="472.5" cy="326.5" r="14" fill="url(#well)" stroke="#cfe2d9" stroke-width="1.5"/>
<circle class="ring" cx="60.0" cy="64.0" r="19" fill="none" stroke="#2c6e57" stroke-width="2.5"/>
<style>.sig{opacity:var(--c)}.ring{opacity:.55}@media(prefers-reduced-motion:no-preference){.sig{opacity:0;animation:dev 1s ease forwards;animation-delay:var(--d)}.ring{opacity:.25;animation:pulse 2.6s ease-in-out 1.4s infinite}}@keyframes dev{to{opacity:var(--c)}}@keyframes pulse{0%,100%{opacity:.25;r:19px}50%{opacity:.9;r:21px}}</style></svg>