<svg xmlns="http://www.w3.org/2000/svg" viewBox="0 0 320 300" role="img" aria-label="Antigen-antibody sandwich binding">
<defs><radialGradient id="ag" cx="0.35" cy="0.3" r="0.8"><stop offset="0" stop-color="#f7c768"/><stop offset="1" stop-color="#f0a830"/></radialGradient></defs>
<rect x="20" y="258" width="280" height="14" rx="4" fill="#4e9d81" opacity="0.18"/>
<line x1="20" y1="258" x2="300" y2="258" stroke="#2c6e57" stroke-width="2"/>
<g class="rise" style="--d:0.00s"><line x1="160" y1="258" x2="160" y2="188.0" stroke="#2c6e57" stroke-width="6" stroke-linecap="round"/><line x1="160" y1="188.0" x2="140.0" y2="162.0" stroke="#2c6e57" stroke-width="6" stroke-linecap="round"/><line x1="160" y1="188.0" x2="180.0" y2="162.0" stroke="#2c6e57" stroke-width="6" stroke-linecap="round"/></g>
<circle class="rise" style="--d:.5s" cx="160" cy="148.0" r="16" fill="url(#ag)"/>
<g class="rise" style="--d:.9s"><line x1="160" y1="136.0" x2="160" y2="118.0" stroke="#1fb6c9" stroke-width="6" stroke-linecap="round"/><line x1="160" y1="118.0" x2="140" y2="94.0" stroke="#1fb6c9" stroke-width="6" stroke-linecap="round"/><line x1="160" y1="118.0" x2="180" y2="94.0" stroke="#1fb6c9" stroke-width="6" stroke-linecap="round"/>
<g class="spark" style="transform-origin:160px 88.0px"><circle cx="160" cy="88.0" r="9" fill="#f0a830"/><line x1="160" y1="88.0" x2="178.0" y2="88.0" stroke="#f0a830" stroke-width="2.4" stroke-linecap="round"/><line x1="160" y1="88.0" x2="172.7" y2="100.7" stroke="#f0a830" stroke-width="2.4" stroke-linecap="round"/><line x1="160" y1="88.0" x2="160.0" y2="106.0" stroke="#f0a830" stroke-width="2.4" stroke-linecap="round"/><line x1="160" y1="88.0" x2="147.3" y2="100.7" stroke="#f0a830" stroke-width="2.4" stroke-linecap="round"/><line x1="160" y1="88.0" x2="142.0" y2="88.0" stroke="#f0a830" stroke-width="2.4" stroke-linecap="round"/><line x1="160" y1="88.0" x2="147.3" y2="75.3" stroke="#f0a830" stroke-width="2.4" stroke-linecap="round"/><line x1="160" y1="88.0" x2="160.0" y2="70.0" stroke="#f0a830" stroke-width="2.4" stroke-linecap="round"/><line x1="160" y1="88.0" x2="172.7" y2="75.3" stroke="#f0a830" stroke-width="2.4" stroke-linecap="round"/></g></g>
<g class="rise" style="--d:0.20s"><line x1="78" y1="258" x2="78" y2="197.8" stroke="#4e9d81" stroke-width="6" stroke-linecap="round"/><line x1="78" y1="197.8" x2="60.8" y2="175.4" stroke="#4e9d81" stroke-width="6" stroke-linecap="round"/><line x1="78" y1="197.8" x2="95.2" y2="175.4" stroke="#4e9d81" stroke-width="6" stroke-linecap="round"/></g>
<g class="rise" style="--d:0.30s"><line x1="242" y1="258" x2="242" y2="197.8" stroke="#4e9d81" stroke-width="6" stroke-linecap="round"/><line x1="242" y1="197.8" x2="224.8" y2="175.4" stroke="#4e9d81" stroke-width="6" stroke-linecap="round"/><line x1="242" y1="197.8" x2="259.2" y2="175.4" stroke="#4e9d81" stroke-width="6" stroke-linecap="round"/></g>
<style>.rise{opacity:1}.spark{}@media(prefers-reduced-motion:no-preference){.rise{opacity:0;transform:translateY(14px);animation:ri .7s ease forwards;animation-delay:var(--d)}.spark{animation:sp 2.4s ease-in-out 1.3s infinite}}@keyframes ri{to{opacity:1;transform:translateY(0)}}@keyframes sp{0%,100%{opacity:.6;transform:scale(.9)}50%{opacity:1;transform:scale(1.12)}}</style></svg>